<svg xmlns="http://www.w3.org/2000/svg" viewBox="0 0 150 100"><path fill="none" stroke="#ff6b6b" stroke-width="2" d="M26.5 25h97v49h-97z"/><path d="M51.3 58.2c-.3-.2-.4-.6-.4-1v-9.1c0-.4.1-.7.4-.9.3-.2.6-.3 1-.3.5 0 .8.1 1.1.3s.4.5.4.9v9.1c0 .4-.1.8-.4 1.1-.3.3-.6.4-1.1.4-.4-.1-.8-.2-1-.5zm8.9.1c0 1 0 1.7.4 2.2.4.5 1 .8 1.8.8.6 0 1.3-.2 2-.5s1.3-.9 2-1.6V61h3.4V44.4h-3.4V57c-.3.4-.7.7-1 .9-.4.2-.7.3-.9.3-.3 0-.6-.1-.7-.3s-.2-.5-.2-.9V44.4h-3.4v13.9zm-12.8-1.5c0 1.4.4 2.5 1.3 3.4.9.8 2.1 1.3 3.6 1.3s2.8-.4 3.6-1.2c.9-.8 1.3-1.9 1.3-3.3v-8.6c0-1.3-.4-2.3-1.3-3.1-.9-.9-2-1.3-3.4-1.3-1.5 0-2.8.4-3.7 1.1-.9.8-1.4 1.8-1.4 3.1v8.6zM34.3 38.5l4.6 13.6V61h3.8v-9.3l4.5-13.2h-3.9l-2.4 9h-.2l-2.5-9h-3.9zm35.4 0h11.4v3.3h-3.8v19.3h-3.8V41.8h-3.8zm19.1 5.9h3.3V61h-3.3v-1.9c-.7.7-1.2 1.2-1.9 1.5-.7.3-1.3.6-2 .6-.8 0-1.3-.2-1.8-.8-.3-.6-.6-1.2-.6-2.2V44.4H86v12.8c0 .4.1.7.2.9.1.2.3.2.7.2.2 0 .6-.1.9-.3.3-.2.8-.6 1-.9V44.4zm12.2-.2c-.6 0-1 .1-1.5.4-.6.2-1 .7-1.4 1.1v-7.3h-3.3V61H98v-1.3c.4.6.9.9 1.4 1.1.6.2 1.1.3 1.8.3 1 0 1.8-.3 2.2-1 .6-.7.8-1.5.8-2.8V48c0-1.3-.2-2.4-.9-3.1-.5-.4-1.3-.7-2.3-.7zm-.4 12.9c0 .6 0 .9-.2 1.1-.2.2-.4.3-.9.3-.3 0-.6-.1-.8-.2-.2-.1-.6-.3-.8-.6V47.4c.2-.2.4-.4.7-.6s.4-.1.7-.1c.4 0 .8.1 1 .4.2.3.3.7.3 1.3v8.7zM111 44c-1.5 0-2.6.4-3.6 1.3s-1.4 2.1-1.4 3.5v7.5c0 1.7.4 2.9 1.3 3.7.9.9 2 1.3 3.5 1.3 1.7 0 2.9-.4 3.7-1.3.9-.9 1.2-2.2 1.2-3.9v-.8h-3.4v.8c0 1-.1 1.7-.3 1.9-.2.3-.6.4-1.2.4s-.9-.2-1.1-.6c-.2-.3-.3-1-.3-1.9V53h6.4v-4.2c0-1.5-.4-2.8-1.2-3.6-1-.8-2.1-1.2-3.6-1.2zm1.3 6.5h-3v-1.7c0-.7.1-1.2.3-1.5.2-.3.7-.4 1.1-.4.6 0 .9.1 1.1.4.2.3.3.8.3 1.5v1.7h.2z" fill="#ff6b6b"/></svg>
